<svg xmlns="http://www.w3.org/2000/svg" viewBox="-100.5 -709.5 364 160" width="364" height="160"><g fill="none"><path d="M139.257-594.285c.838-6.983.587-8.007 5.788-6.876l1.32.116c4 .182 9.232-.643 12.306-2.071 6.617-3.07 10.54-8.197 4.016-6.85-14.882 3.07-15.906-1.969-15.906-1.969 15.716-23.317 22.285-52.916 16.614-60.162-15.466-19.762-42.238-10.417-42.686-10.174l-.142.026c-2.941-.61-6.232-.975-9.929-1.034-6.735-.111-11.845 1.765-15.722 4.706 0 0-47.76-19.677-45.537 24.745.472 9.45 13.545 71.504 29.136 52.76 5.699-6.853 11.206-12.648 11.206-12.648 2.735 1.816 6.009 2.743 9.443 2.41l.265-.226c-.083.85-.046 1.683.106 2.669-4.016 4.487-2.836 5.275-10.866 6.928-8.124 1.675-3.351 4.656-.236 5.435 3.778.945 12.518 2.283 18.425-5.984l-.235.943c1.576 1.26 1.469 9.06 1.692 14.633.224 5.572.597 10.773 1.733 13.839 1.136 3.065 2.477 10.963 13.03 8.7 8.82-1.89 15.564-4.61 16.179-29.916" fill="#000"/><path d="M139.257-594.285c.838-6.983.587-8.007 5.788-6.876l1.32.116c4 .182 9.232-.643 12.306-2.071 6.617-3.07 10.54-8.197 4.016-6.85-14.882 3.07-15.906-1.969-15.906-1.969 15.716-23.317 22.285-52.916 16.614-60.162-15.466-19.762-42.238-10.417-42.686-10.174l-.142.026c-2.941-.61-6.232-.975-9.929-1.034-6.735-.111-11.845 1.765-15.722 4.706 0 0-47.76-19.677-45.537 24.745.472 9.45 13.545 71.504 29.136 52.76 5.699-6.853 11.206-12.648 11.206-12.648 2.735 1.816 6.009 2.743 9.443 2.41l.265-.226c-.083.85-.046 1.683.106 2.669-4.016 4.487-2.836 5.275-10.866 6.928-8.124 1.675-3.351 4.656-.236 5.435 3.778.945 12.518 2.283 18.425-5.984l-.235.943c1.576 1.26 1.469 9.06 1.692 14.633.224 5.572.597 10.773 1.733 13.839 1.136 3.065 2.477 10.963 13.03 8.7 8.82-1.89 15.564-4.61 16.179-29.916" stroke="#000" stroke-linejoin="round" stroke-width="11.065"/><path d="M161.958-610.15c-14.884 3.07-15.907-1.969-15.907-1.969 15.715-23.319 22.284-52.918 16.615-60.163-15.466-19.761-42.24-10.415-42.686-10.173l-.144.026c-2.94-.61-6.232-.974-9.93-1.034-6.735-.11-11.844 1.765-15.72 4.705 0 0-47.76-19.675-45.54 24.746.473 9.45 13.545 71.504 29.137 52.761 5.7-6.854 11.206-12.649 11.206-12.649 2.734 1.817 6.009 2.744 9.44 2.41l.268-.226c-.083.851-.045 1.684.106 2.67-4.016 4.487-2.836 5.275-10.866 6.928-8.125 1.674-3.352 4.655-.235 5.435 3.778.944 12.518 2.283 18.424-5.985l-.236.944c1.574 1.26 2.68 8.2 2.494 14.49-.185 6.29-.309 10.608.931 13.981 1.24 3.374 2.476 10.963 13.032 8.702 8.82-1.89 13.391-6.789 14.027-14.96.451-5.808 1.472-4.95 1.537-10.143l.819-2.458c.944-7.874.15-10.415 5.584-9.233l1.32.116c4 .182 9.235-.643 12.307-2.071 6.616-3.07 10.54-8.197 4.016-6.85z" fill="#009b00"/><path d="M107.496-605.453c-.41 14.652.103 29.405 1.536 32.991 1.435 3.586 4.505 10.56 15.061 8.298 8.82-1.89 12.029-5.55 13.421-13.626 1.026-5.942 3.003-22.445 3.257-25.826" fill="#009b00"/><path d="M107.496-605.453c-.41 14.652.103 29.405 1.536 32.991 1.435 3.586 4.505 10.56 15.061 8.298 8.82-1.89 12.029-5.55 13.421-13.626 1.026-5.942 3.003-22.445 3.257-25.826" stroke="#fff" stroke-linecap="round" stroke-linejoin="round" stroke-width="3.688"/><path d="M94.843-678.902s-47.793-19.534-45.571 24.888c.472 9.45 13.545 71.506 29.137 52.762a258.831 258.831 0 0 1 10.85-12.23" fill="#3464e0"/><path d="M94.843-678.902s-47.793-19.534-45.571 24.888c.472 9.45 13.545 71.506 29.137 52.762a258.831 258.831 0 0 1 10.85-12.23" stroke="#fff" stroke-linecap="round" stroke-linejoin="round" stroke-width="3.688"/><path d="M112.566-680.364c-1.655.581 35.068-14.653 51.117 8.331 5.67 8.12-1.079 34.183-16.794 60.32" fill="#9f54b8"/><path d="M112.566-680.364c-1.655.581 35.068-14.653 51.117 8.331 5.67 8.12-1.079 34.183-16.794 60.32" stroke="#fff" stroke-linecap="round" stroke-linejoin="round" stroke-width="3.688"/><path d="M146.677-612.12s1.024 5.041 15.908 1.97c6.522-1.348 2.597 3.779-4.017 6.85-5.428 2.52-17.598 3.165-17.797-.316-.511-8.982 6.405-6.253 5.906-8.503-.451-2.027-3.544-4.017-5.59-8.977-1.787-4.33-24.5-37.534 6.298-32.603 1.129-.233-8.032-29.294-36.854-29.766-28.816-.473-27.87 35.436-27.87 35.436" fill="#009b00"/><path d="M146.677-612.12s1.024 5.041 15.908 1.97c6.522-1.348 2.597 3.779-4.017 6.85-5.428 2.52-17.598 3.165-17.797-.316-.511-8.982 6.405-6.253 5.906-8.503-.451-2.027-3.544-4.017-5.59-8.977-1.787-4.33-24.5-37.534 6.298-32.603 1.129-.233-8.032-29.294-36.854-29.766-28.816-.473-27.87 35.436-27.87 35.436" stroke="#fff" stroke-linecap="round" stroke-linejoin="round" stroke-width="3.688"/><path d="M99.43-609.048c-4.018 4.488-2.837 5.276-10.867 6.93-8.125 1.674-3.351 4.655-.236 5.433 3.778.946 12.519 2.284 18.424-5.985 1.799-2.518-.01-6.536-2.48-7.56-1.194-.494-2.79-1.114-4.842 1.182z" fill="#dd2828"/><path d="M99.43-609.048c-4.018 4.488-2.837 5.276-10.867 6.93-8.125 1.674-3.351 4.655-.236 5.433 3.778.946 12.519 2.284 18.424-5.985 1.799-2.518-.01-6.536-2.48-7.56-1.194-.494-2.79-1.114-4.842 1.182z" stroke="#fff" stroke-linecap="round" stroke-linejoin="round" stroke-width="3.688"/><g><path d="M99.166-609.126c-.405-2.639.867-5.778 2.23-9.452 2.048-5.51 6.774-11.023 2.993-28.506-2.817-13.028-21.717-2.711-21.729-.945-.011 1.766.855 8.954-.316 17.324-1.527 10.923 6.95 20.16 16.712 19.215" fill="#3464e0"/><path d="M99.166-609.126c-.405-2.639.867-5.778 2.23-9.452 2.048-5.51 6.774-11.023 2.993-28.506-2.817-13.028-21.717-2.711-21.729-.945-.011 1.766.855 8.954-.316 17.324-1.527 10.923 6.95 20.16 16.712 19.215" stroke="#fff" stroke-linecap="round" stroke-linejoin="round" stroke-width="3.688"/></g><g><path d="M147.385-653.699c.256 4.733-1.02 7.956-1.18 12.994-.238 7.323 3.491 15.704-2.128 24.096" fill="#9f54b8"/><path d="M147.385-653.699c.256 4.733-1.02 7.956-1.18 12.994-.238 7.323 3.491 15.704-2.128 24.096" stroke="#fff" stroke-linecap="round" stroke-linejoin="round" stroke-width="3.688"/></g><g><path d="M141.842-649.523c.084.603-1.105 2.213-2.656 2.428-1.55.216-2.876-1.042-2.96-1.645-.083-.603 1.106-1.268 2.656-1.484 1.55-.216 2.876.099 2.96.7z" fill="#fff"/><path d="M141.842-649.523c.084.603-1.105 2.213-2.656 2.428-1.55.216-2.876-1.042-2.96-1.645-.083-.603 1.106-1.268 2.656-1.484 1.55-.216 2.876.099 2.96.7z" stroke="#fff" stroke-linejoin="round" stroke-width=".615"/></g><g><path d="M94.67-648.293c-.086.603 1.104 2.213 2.655 2.428 1.549.216 2.874-1.042 2.958-1.645.084-.603-1.104-1.268-2.656-1.484-1.55-.216-2.876.099-2.958.7z" fill="#fff"/><path d="M94.67-648.293c-.086.603 1.104 2.213 2.655 2.428 1.549.216 2.874-1.042 2.958-1.645.084-.603-1.104-1.268-2.656-1.484-1.55-.216-2.876.099-2.958.7z" stroke="#fff" stroke-linejoin="round" stroke-width="1.229"/></g><g><path stroke="#fff" stroke-linecap="round" stroke-linejoin="round" stroke-width=".888" d="M43.622-690.222h.296v.296h-.296z"/></g><g><path d="M211.687-650.975c-5.363 0-9.71-4.347-9.71-9.71 0-5.362 4.347-9.71 9.71-9.71 5.362 0 9.71 4.348 9.71 9.71-.007 5.36-4.35 9.704-9.71 9.71z" fill="#3464e0"/><g><path d="M219.29-602.428a28.889 28.889 0 0 1-1.428 10.004 13.222 13.222 0 0 1-3.95 5.891 13.451 13.451 0 0 1-6.153 2.837 39.97 39.97 0 0 1-7.985.73 24.51 24.51 0 0 1-5.248-.512 14.182 14.182 0 0 1-3.862-1.386 6.546 6.546 0 0 1-2.334-2.029 3.95 3.95 0 0 1-.83-2.389c-.02-1.43.62-2.79 1.735-3.687a7.059 7.059 0 0 1 4.724-1.473 5.455 5.455 0 0 1 2.04.349 6.545 6.545 0 0 1 1.56.862c.447.36.87.75 1.266 1.167.338.437.643.84.905 1.222a8.269 8.269 0 0 0 1.647 1.691c.372.256.805.406 1.255.436.385.005.764-.101 1.09-.305.367-.274.638-.655.775-1.091.24-.672.387-1.373.437-2.084.132-1.107.19-2.223.174-3.338v-50.915l14.183-3.905z" fill="#000"/></g><g><path d="M245.785-602.308h-14.183v-65.25l14.183-3.906z" fill="#000"/></g></g><g><path d="M-22.298-652.045c-5.36-.006-9.702-4.355-9.698-9.716.004-5.361 4.352-9.705 9.713-9.703 5.361.002 9.706 4.349 9.706 9.71-.006 5.364-4.356 9.71-9.72 9.71z" fill="#dd2828"/><g><path d="m-28.461-647.386 14.182-3.906v47.915h-14.182z" fill="#000"/></g></g><g><path d="M183.71-600.243c-5.363 0-9.71-4.347-9.71-9.71 0-5.362 4.347-9.71 9.71-9.71 5.362 0 9.709 4.348 9.709 9.71a9.72 9.72 0 0 1-9.71 9.71z" fill="#000"/></g><g><text transform="translate(-86.46 -702.392)" fill="#000">
            <tspan font-family="Khmer MN" font-size="100" font-weight="700" x="0" y="99">L</tspan>
          </text></g><g><text transform="translate(-6.577 -700.953)" fill="#000">
            <tspan font-family="Khmer MN" font-size="100" font-weight="700" x="0" y="99">b</tspan>
          </text></g><g><path d="M-100-709h363v163.573h-363z"/></g></g></svg>